FILE "Emit Value Pack (Japan) (Disc 2) (Vol. 2 - Inochigake no Tabi) (Track 01).bin" BINARY
  TRACK 01 MODE2/2352
    INDEX 01 00:00:00
FILE "Emit Value Pack (Japan) (Disc 2) (Vol. 2 - Inochigake no Tabi) (Track 02).bin" BINARY
  TRACK 02 AUDIO
    INDEX 00 00:00:00
    INDEX 01 00:02:07
FILE "Emit Value Pack (Japan) (Disc 2) (Vol. 2 - Inochigake no Tabi) (Track 03).bin" BINARY
  TRACK 03 AUDIO
    INDEX 00 00:00:00
    INDEX 01 00:02:17
FILE "Emit Value Pack (Japan) (Disc 2) (Vol. 2 - Inochigake no Tabi) (Track 04).bin" BINARY
  TRACK 04 AUDIO
    INDEX 00 00:00:00
    INDEX 01 00:02:73
FILE "Emit Value Pack (Japan) (Disc 2) (Vol. 2 - Inochigake no Tabi) (Track 05).bin" BINARY
  TRACK 05 AUDIO
    INDEX 00 00:00:00
    INDEX 01 00:02:35
FILE "Emit Value Pack (Japan) (Disc 2) (Vol. 2 - Inochigake no Tabi) (Track 06).bin" BINARY
  TRACK 06 AUDIO
    INDEX 00 00:00:00
    INDEX 01 00:02:44
FILE "Emit Value Pack (Japan) (Disc 2) (Vol. 2 - Inochigake no Tabi) (Track 07).bin" BINARY
  TRACK 07 AUDIO
    INDEX 00 00:00:00
    INDEX 01 00:02:72
FILE "Emit Value Pack (Japan) (Disc 2) (Vol. 2 - Inochigake no Tabi) (Track 08).bin" BINARY
  TRACK 08 AUDIO
    INDEX 00 00:00:00
    INDEX 01 00:02:13
FILE "Emit Value Pack (Japan) (Disc 2) (Vol. 2 - Inochigake no Tabi) (Track 09).bin" BINARY
  TRACK 09 AUDIO
    INDEX 00 00:00:00
    INDEX 01 00:02:02
FILE "Emit Value Pack (Japan) (Disc 2) (Vol. 2 - Inochigake no Tabi) (Track 10).bin" BINARY
  TRACK 10 AUDIO
    INDEX 00 00:00:00
    INDEX 01 00:02:65
FILE "Emit Value Pack (Japan) (Disc 2) (Vol. 2 - Inochigake no Tabi) (Track 11).bin" BINARY
  TRACK 11 AUDIO
    INDEX 00 00:00:00
    INDEX 01 00:02:02
FILE "Emit Value Pack (Japan) (Disc 2) (Vol. 2 - Inochigake no Tabi) (Track 12).bin" BINARY
  TRACK 12 AUDIO
    INDEX 00 00:00:00
    INDEX 01 00:02:50
FILE "Emit Value Pack (Japan) (Disc 2) (Vol. 2 - Inochigake no Tabi) (Track 13).bin" BINARY
  TRACK 13 AUDIO
    INDEX 00 00:00:00
    INDEX 01 00:02:50
FILE "Emit Value Pack (Japan) (Disc 2) (Vol. 2 - Inochigake no Tabi) (Track 14).bin" BINARY
  TRACK 14 AUDIO
    INDEX 00 00:00:00
    INDEX 01 00:02:38
FILE "Emit Value Pack (Japan) (Disc 2) (Vol. 2 - Inochigake no Tabi) (Track 15).bin" BINARY
  TRACK 15 AUDIO
    INDEX 00 00:00:00
    INDEX 01 00:02:39
FILE "Emit Value Pack (Japan) (Disc 2) (Vol. 2 - Inochigake no Tabi) (Track 16).bin" BINARY
  TRACK 16 AUDIO
    INDEX 00 00:00:00
    INDEX 01 00:02:25
FILE "Emit Value Pack (Japan) (Disc 2) (Vol. 2 - Inochigake no Tabi) (Track 17).bin" BINARY
  TRACK 17 AUDIO
    INDEX 00 00:00:00
    INDEX 01 00:02:05
FILE "Emit Value Pack (Japan) (Disc 2) (Vol. 2 - Inochigake no Tabi) (Track 18).bin" BINARY
  TRACK 18 AUDIO
    INDEX 00 00:00:00
    INDEX 01 00:02:08
FILE "Emit Value Pack (Japan) (Disc 2) (Vol. 2 - Inochigake no Tabi) (Track 19).bin" BINARY
  TRACK 19 AUDIO
    INDEX 00 00:00:00
    INDEX 01 00:02:52
FILE "Emit Value Pack (Japan) (Disc 2) (Vol. 2 - Inochigake no Tabi) (Track 20).bin" BINARY
  TRACK 20 AUDIO
    INDEX 00 00:00:00
    INDEX 01 00:02:55
FILE "Emit Value Pack (Japan) (Disc 2) (Vol. 2 - Inochigake no Tabi) (Track 21).bin" BINARY
  TRACK 21 AUDIO
    INDEX 00 00:00:00
    INDEX 01 00:02:68
FILE "Emit Value Pack (Japan) (Disc 2) (Vol. 2 - Inochigake no Tabi) (Track 22).bin" BINARY
  TRACK 22 AUDIO
    INDEX 00 00:00:00
    INDEX 01 00:02:71
FILE "Emit Value Pack (Japan) (Disc 2) (Vol. 2 - Inochigake no Tabi) (Track 23).bin" BINARY
  TRACK 23 AUDIO
    INDEX 00 00:00:00
    INDEX 01 00:02:44
FILE "Emit Value Pack (Japan) (Disc 2) (Vol. 2 - Inochigake no Tabi) (Track 24).bin" BINARY
  TRACK 24 AUDIO
    INDEX 00 00:00:00
    INDEX 01 00:02:56
FILE "Emit Value Pack (Japan) (Disc 2) (Vol. 2 - Inochigake no Tabi) (Track 25).bin" BINARY
  TRACK 25 AUDIO
    INDEX 00 00:00:00
    INDEX 01 00:02:34
FILE "Emit Value Pack (Japan) (Disc 2) (Vol. 2 - Inochigake no Tabi) (Track 26).bin" BINARY
  TRACK 26 AUDIO
    INDEX 00 00:00:00
    INDEX 01 00:02:45
FILE "Emit Value Pack (Japan) (Disc 2) (Vol. 2 - Inochigake no Tabi) (Track 27).bin" BINARY
  TRACK 27 AUDIO
    INDEX 00 00:00:00
    INDEX 01 00:02:21
FILE "Emit Value Pack (Japan) (Disc 2) (Vol. 2 - Inochigake no Tabi) (Track 28).bin" BINARY
  TRACK 28 AUDIO
    INDEX 00 00:00:00
    INDEX 01 00:02:04
FILE "Emit Value Pack (Japan) (Disc 2) (Vol. 2 - Inochigake no Tabi) (Track 29).bin" BINARY
  TRACK 29 AUDIO
    INDEX 00 00:00:00
    INDEX 01 00:02:20
FILE "Emit Value Pack (Japan) (Disc 2) (Vol. 2 - Inochigake no Tabi) (Track 30).bin" BINARY
  TRACK 30 AUDIO
    INDEX 00 00:00:00
    INDEX 01 00:02:73
FILE "Emit Value Pack (Japan) (Disc 2) (Vol. 2 - Inochigake no Tabi) (Track 31).bin" BINARY
  TRACK 31 AUDIO
    INDEX 00 00:00:00
    INDEX 01 00:02:73
